<?xml version="1.0" standalone="no"?>
<!DOCTYPE svg PUBLIC "-//W3C//DTD SVG 20010904//EN"
 "http://www.w3.org/TR/2001/REC-SVG-20010904/DTD/svg10.dtd">
<svg version="1.0" xmlns="http://www.w3.org/2000/svg"
 width="487.000000pt" height="156.000000pt" viewBox="0 0 487.000000 156.000000"
 preserveAspectRatio="xMidYMid meet">

<g transform="translate(0.000000,156.000000) scale(0.100000,-0.100000)"
fill="#000000" stroke="none">
<path d="M745 1243 c-43 -10 -45 -25 -45 -274 l0 -238 -33 -9 c-87 -24 -171
-110 -202 -208 -15 -47 -18 -51 -60 -62 -62 -16 -120 -78 -141 -149 -36 -124
34 -263 148 -294 25 -6 200 -9 486 -7 l447 3 42 28 c101 65 136 205 79 315
-18 35 -91 102 -110 102 -8 0 -20 15 -26 34 -6 19 -20 46 -30 59 l-19 24 67 6
c83 7 119 22 138 58 23 45 18 69 -16 82 l-30 11 0 237 c0 218 -2 239 -19 260
l-19 24 -319 2 c-175 0 -327 -1 -338 -4z m645 -283 l0 -240 -325 0 -325 0 0
233 c0 129 3 237 7 240 3 4 150 7 325 7 l318 0 0 -240z m60 -299 c0 -6 -10
-17 -22 -25 -19 -14 -70 -16 -355 -16 -335 0 -383 5 -383 37 0 11 69 13 380
13 231 0 380 -4 380 -9z m-805 -23 c6 -12 23 -31 38 -42 27 -20 43 -21 288
-24 l259 -3 26 -34 c14 -19 32 -51 39 -71 9 -27 24 -43 60 -63 110 -59 130
-230 37 -314 -48 -44 -76 -46 -517 -46 -441 0 -469 2 -517 46 -59 53 -75 161
-37 240 25 52 64 82 121 91 41 7 42 9 59 64 20 68 50 118 90 153 37 31 42 31
54 3z"/>
<path d="M1143 1138 c-27 -35 -183 -349 -178 -358 3 -5 12 -10 18 -10 16 0
200 356 192 370 -8 14 -20 13 -32 -2z"/>
<path d="M857 1012 c-26 -26 -47 -52 -47 -58 0 -17 95 -104 113 -104 28 0 20
23 -23 65 l-40 39 41 42 c39 39 44 64 16 64 -7 0 -34 -22 -60 -48z"/>
<path d="M1200 1045 c0 -9 16 -29 35 -46 19 -17 35 -36 35 -43 0 -7 -16 -27
-35 -46 -19 -19 -35 -40 -35 -46 0 -32 26 -21 75 33 l54 58 -52 53 c-52 53
-77 65 -77 37z"/>
<path d="M3354 1056 c-58 -25 -64 -45 -64 -203 0 -142 0 -143 28 -173 50 -56
186 -52 232 7 18 23 20 40 20 167 0 158 -6 177 -66 202 -42 18 -109 17 -150 0z
m131 -31 c47 -19 55 -45 55 -175 0 -101 -2 -111 -25 -138 -46 -54 -150 -49
-180 9 -18 34 -21 239 -4 270 12 23 62 48 97 49 12 0 38 -7 57 -15z"/>
<path d="M3354 999 c-17 -18 -19 -37 -19 -146 0 -119 1 -126 24 -144 26 -22
86 -25 125 -8 37 17 49 66 44 179 -5 125 -15 140 -98 140 -45 0 -61 -4 -76
-21z m118 -26 c25 -23 27 -207 1 -235 -18 -20 -54 -23 -84 -8 -17 10 -19 22
-19 120 0 85 3 112 16 124 20 21 63 20 86 -1z"/>
<path d="M4090 1057 c-56 -19 -70 -59 -70 -200 0 -141 12 -181 64 -202 70 -29
172 -13 202 33 15 21 19 51 22 142 5 156 -6 195 -61 221 -48 21 -106 23 -157
6z m157 -51 c27 -31 37 -94 31 -191 -6 -91 -23 -120 -80 -136 -53 -14 -95 -2
-122 34 -17 24 -22 46 -24 132 -6 156 23 199 128 191 32 -3 50 -11 67 -30z"/>
<path d="M4090 1000 c-18 -18 -20 -33 -20 -144 0 -123 0 -125 26 -145 39 -31
107 -29 139 4 24 23 25 31 25 135 0 106 -8 145 -34 162 -6 4 -35 8 -63 8 -40
0 -58 -5 -73 -20z m116 -24 c17 -13 19 -27 19 -121 0 -94 -2 -108 -19 -121
-26 -19 -65 -18 -88 3 -25 23 -27 207 -1 235 19 22 62 23 89 4z"/>
<path d="M1750 855 l0 -205 40 0 40 0 1 123 1 122 19 -70 c11 -38 27 -94 35
-122 13 -48 17 -53 42 -53 27 0 29 4 63 118 l34 117 3 -117 3 -118 39 0 40 0
0 205 0 205 -48 0 -48 0 -38 -117 c-21 -65 -42 -122 -46 -126 -4 -5 -17 24
-29 65 -12 40 -30 97 -38 126 l-17 52 -48 0 -48 0 0 -205z m126 25 c37 -110
55 -149 59 -135 80 239 101 290 120 290 19 0 20 -8 23 -169 1 -106 -1 -173 -8
-180 -7 -7 -10 45 -10 162 0 98 -4 172 -9 172 -5 0 -33 -71 -61 -157 -29 -87
-56 -162 -60 -166 -4 -5 -32 64 -62 154 -30 90 -60 165 -66 167 -9 3 -13 -41
-14 -170 l-2 -173 -3 170 c-2 93 -1 175 2 183 3 7 12 12 22 10 11 -2 32 -49
69 -158z"/>
<path d="M2200 1057 c0 -2 20 -48 45 -103 44 -96 45 -102 45 -201 l0 -103 40
0 40 0 0 94 c0 89 2 98 45 196 25 57 45 107 45 111 0 5 -16 9 -35 9 -32 0 -37
-4 -60 -51 -30 -57 -40 -56 -70 11 -17 37 -21 40 -57 40 -21 0 -38 -2 -38 -3z
m171 -104 c22 42 41 77 44 77 5 0 -20 -61 -51 -122 -20 -39 -24 -64 -26 -140
l-2 -93 -5 95 c-5 84 -10 103 -44 167 -20 40 -37 78 -37 85 1 7 19 -23 42 -67
l41 -79 38 77z"/>
<path d="M2560 855 l0 -205 40 0 40 0 0 55 0 55 51 0 c42 0 55 5 79 28 51 52
53 202 3 248 -23 22 -35 24 -119 24 l-94 0 0 -205z m192 155 c14 -17 18 -40
18 -100 0 -73 -2 -80 -26 -99 -20 -15 -41 -21 -80 -21 l-54 0 0 -55 c0 -30 -4
-55 -10 -55 -12 0 -14 342 -2 354 4 5 36 6 72 3 50 -4 68 -10 82 -27z"/>
<path d="M2610 909 l0 -112 58 6 c76 8 92 27 92 113 0 85 -18 104 -95 104
l-55 0 0 -111z m110 52 c15 -29 12 -87 -6 -105 -8 -9 -29 -16 -45 -16 l-29 0
0 70 0 70 35 0 c24 0 37 -6 45 -19z"/>
<path d="M2900 855 l0 -205 40 0 40 0 0 85 0 85 55 0 55 0 0 -85 0 -85 40 0
40 0 0 205 0 205 -40 0 -40 0 0 -80 0 -80 -55 0 -55 0 0 80 0 80 -40 0 -40 0
0 -205z m50 95 l0 -80 85 0 84 0 4 83 c1 45 3 1 3 -98 0 -99 -2 -141 -3 -92
l-4 87 -84 0 -85 0 0 -85 c0 -50 -4 -85 -10 -85 -6 0 -10 65 -10 175 0 110 4
175 10 175 6 0 10 -33 10 -80z"/>
<path d="M3660 1025 l0 -35 50 0 50 0 0 -170 0 -170 40 0 40 0 0 170 0 170 45
0 c45 0 45 0 45 35 l0 35 -135 0 -135 0 0 -35z m235 5 c4 -6 -13 -10 -44 -10
l-51 0 -2 -172 -2 -173 -3 173 -3 172 -51 0 c-31 0 -48 4 -44 10 3 6 48 10
100 10 52 0 97 -4 100 -10z"/>
<path d="M4452 863 c-29 -109 -53 -202 -52 -206 0 -5 17 -7 37 -5 34 3 38 6
49 43 11 39 12 40 61 43 l50 3 12 -46 c11 -44 12 -45 50 -45 l39 0 -33 123
c-18 67 -42 159 -55 205 l-22 82 -42 0 -42 0 -52 -197z m139 41 c63 -204 68
-224 60 -224 -4 0 -13 23 -20 50 l-13 51 -71 -3 -70 -3 -18 -50 c-33 -94 -20
-30 28 137 26 93 53 166 58 165 6 -2 26 -57 46 -123z"/>
<path d="M4516 914 c-16 -54 -31 -105 -33 -111 -4 -10 12 -13 61 -13 77 0 74
-15 27 136 l-26 87 -29 -99z m54 -81 c0 -18 -6 -23 -25 -23 -28 0 -30 7 -13
63 l12 40 13 -29 c6 -16 12 -39 13 -51z"/>
<path d="M4790 855 l0 -205 40 0 40 0 0 205 0 205 -40 0 -40 0 0 -205z m47
-87 c-1 -51 -3 -12 -3 87 0 99 2 141 3 93 2 -48 2 -129 0 -180z"/>
</g>
</svg>
